<?xml version="1.0" encoding="utf-8"?>
<!-- Generator: Adobe Illustrator 25.2.1, SVG Export Plug-In . SVG Version: 6.00 Build 0)  -->
<svg version="1.1" id="Camada_1" xmlns="http://www.w3.org/2000/svg" xmlns:xlink="http://www.w3.org/1999/xlink" x="0px" y="0px"
	 viewBox="0 0 1080 1080" style="enable-background:new 0 0 1080 1080;" xml:space="preserve">
<style type="text/css">
	.st0{fill:#FFFFFF;stroke:#466BE3;stroke-width:28;stroke-miterlimit:10;}
	.st1{fill:#466BE3;}
</style>
<circle class="st0" cx="540" cy="540" r="382.5"/>
<g>
	<path class="st1" d="M704.4,535.2c0.7-2.1,1.3-4.2,2-6.3c4.7,10.6,9.5,20.4,20.9,27.2c-0.5-5.9-0.8-10.6-1.2-15.2
		c-0.4,0.3-0.8,0.6-1.2,0.9c-2.5-1.7-5.7-2.8-7.2-5.1c-3.3-5-6.9-10.3-2.4-16.6c0.7-1,0-2.9,0-4.3c0-1.5,0-3,0-4.9
		c5.5,1.9,10,0.8,14.3-1.6c0.1-0.1,0.3-0.2,0.4-0.2c12.7,1.2,20.5-9.4,31.1-13.3c3.8-1.4,7.3-3.8,11.4-6c2.5,6,4.8,11.6,7.4,17.8
		c-8.6,5.1-17.2,10.1-25.7,15.2c-6.3,3.7-6.4,4.3-4,11c9.3,26.6,8.9,52.3-7.1,76.5c-0.3,0.4-0.3,0.9-0.4,1.4
		c0.5,0.3,0.8,0.7,1.3,0.9c18.4,8.3,24,25.3,14.6,45.2c-6.8,14.6-16.9,27.1-27.1,39.4c-1.2,1.5-2.5,3-3.6,4.3
		c5.8,2.7,11.5,4.6,16.5,7.7c13.3,8.2,12.9,22.2-0.4,30.3c-8.4,5.1-17.8,6.2-27.4,6.4c-19.5,0.5-39,1.2-58.5,1.1
		c-6.9,0-14-1.2-20.6-3.2c-16.9-5-21.3-18.8-9.7-32.2c6.6-7.7,15.3-13.7,23-20.4c0.6-0.5,1.3-0.9,1.6-1.2
		c-13.6,2.1-27.3,4.9-41.1,6.1c-16.2,1.4-32.6,1.6-48.9,2.1c-2.7,0.1-4.5,0.7-6.1,3.1c-9.3,14-28.6,16.6-41.7,6.1
		c-1.7-1.3-4.5-2.3-6.6-2c-33.8,5.5-67.7,11.2-101.5,16.8c-0.3,0.1-0.6,0.3-1.2,0.6c0,13.5-8.8,19.8-20.4,23.5
		c-16.2,5.1-32.8,5.2-49.5,4.6c-11.5-0.5-22.9-1.5-34.4-2.7c-5.6-0.6-11.8-1.2-14.3-7.3c-2.4-5.8,1.6-10.3,5-14.3
		c11.1-13.3,24.8-23.6,39.4-32.8c32.3-20.4,64.4-40.9,99.9-55.5c7.5-3.1,15.5-4.8,23.3-7.1c4-1.2,6,0.6,8.2,4.1
		c7.3,11.3,14.8,22.5,23.2,33c4.1,5.1,10.2,8.5,15.9,12c-15.1-15.3-28.4-32-38.9-50.5c-19-33.2-17.8-73.2,12.3-98.7
		c1.2-1.1,2.6-2,3.9-3.1c6.5,8.3,12.5,16.7,19.2,24.4c18.8,21.6,41.2,37.7,70,43.5c23.6,4.8,46.4,1.2,68.8-6.6
		c17.7-6.2,34.1-15,49.9-25c1.1-0.7,2.3-1.3,4.2-2.5c3.3,6.2,7,12,9.5,18.2c1.6,4,3.7,4.5,7.2,3.9c10.6-2,18.1-11,18.7-23.3
		c-8.1-2.3-12.5-9.1-17.3-15.4C707.5,541.7,705.9,538.4,704.4,535.2z M533.9,636.7c-4.1-15.7-8.3-31.7-12.3-47.5
		C515.4,604.6,520.7,624.9,533.9,636.7z M738.1,611.5c-13.1-5.3-35.7-2.7-43.2,1.9C709.8,612.7,723.9,612.1,738.1,611.5z
		 M758.1,505.1c-1.4,2.9-2.5,5.5-4.2,9.2c2.5-0.3,4.7,0.1,5.5-0.8c1.5-1.7,2.3-4.2,3.4-6.5C761.1,506.2,759.9,505.8,758.1,505.1z
		 M679.5,678.1c-0.2-0.5-0.3-0.9-0.5-1.4c-5.9,2.7-11.9,5.5-17.8,8.2c0.2,0.4,0.3,0.7,0.5,1.1C667.6,683.4,673.5,680.7,679.5,678.1z
		"/>
	<path class="st1" d="M464.8,450.9c-12.2,1.2-24.1,2.8-36,3.6c-16.5,1.1-33-0.2-48.9-5.3c-8.8-2.8-17-6.8-23.5-13.7
		c-9.7-10.3-11-22.2-3.4-34.2c5.3-8.3,12.6-14.3,21.5-19c0.9,4.9,1.4,9.3,2.4,13.6c5.3,21.6,19.9,34.1,43.7,36.9
		c7.7,0.9,15.5,0.8,24.4,1.2c-1.2-1.5-1.4-1.9-1.8-2.1c-16.6-9.9-23.6-25.3-24.1-43.9c-0.3-11,0.5-22,0.3-33
		c-0.1-8.3-0.3-16.7-1.4-24.9c-1.5-11-6.8-20-16.7-25.8c0.1-0.4,0.3-0.8,0.4-1.3c13.3,2.5,26.9,3.9,39.7,7.8
		c13.3,4.1,18.1,16.4,14.1,32.5c-2,7.9-5.2,15.4-8.1,23c-5.6,15.1-5.5,29.6,5.5,42.2c4.8,5.5,11.1,9.8,17,15
		c22.6-73.7,103.5-107.4,169.2-82.9C698,362.8,733.3,426,720.4,488c-13.2,63.7-70.1,106.8-135.5,103
		C520.4,587.3,458,528.6,464.8,450.9z M486,448.2c1.1,6,1.9,11.3,3.1,16.4c4.8,20.9,11.2,41.2,25.9,57.7
		c10.3,11.6,22.3,19,38.7,14.9c6-1.5,12.1-2.3,18.1-3.8c13.6-3.3,27.4-5.3,41.1-2.2c12.2,2.8,23.9,7.8,36,11.4
		c14.9,4.5,19.6,4.2,30.1-6.6c3.1-3.2,5.7-7,8-10.8c11.6-19.3,17.9-40.8,24-62.2c1-3.4,1.7-7,2.6-10.9
		C637.2,474.3,561.7,480.4,486,448.2z"/>
	<path class="st1" d="M704.4,535.2c1.5,3.3,3.1,6.5,4.6,9.8c-0.8,1.1-1.4,2.7-2.5,3.4c-10,6-20.1,11.8-30.2,17.6
		c-0.2,0.1-0.6-0.1-2.2-0.5c9.6-7.4,18.5-14.4,27.9-21.7C701.2,541.1,698.2,536.9,704.4,535.2z"/>
	<path class="st1" d="M552.7,490.5c-1.2-1.1-2.2-2.5-3.6-3.1c-10.9-4.7-21.9-9.3-33.3-14.2c26.9-3.2,50.8,8.3,76.6,12.9
		c-6.7,7-14.8,7.3-23.6,6.8c0.9,2,1.8,3.5,2.4,5.1c2.7,7.1-0.9,15.3-8,18.2c-6.9,2.8-14.9-0.4-18.1-7.2c-3.2-6.8-0.6-15.1,6-18.4
		c0.5-0.3,1.2-0.1,1.8-0.2c-0.3,1.7-0.9,3.5-0.8,5.3c0.2,3.9,3.4,6.7,7.3,6.5c4-0.2,6.5-2.4,6.8-6.5c0.1-1-0.3-3-0.8-3.1
		C561.2,491.7,556.9,491.1,552.7,490.5z"/>
	<path class="st1" d="M639.4,489.4c9.3,7.4,10.7,12.9,5.6,21.6c-2.6,4.5-6.8,6.1-11.8,6c-4.8-0.1-8.6-2-11-6.4
		c-2.6-4.7-3.4-9.6-0.8-15.4c-8.4,0.2-15.7-1.5-21-8.6c25.3-4.7,49.1-15.9,75.7-13.1c-12.3,5.4-24.5,10.6-36.5,15.9
		c-4.4,1.8-8.7,3.6-14.6,5.9c2.3,2.7,3.9,5.7,6.4,7c1.8,0.9,5.5,0.1,7.2-1.3c2.8-2.3,3.7-5.8,1.9-9.5
		C640,490.9,639.7,490.2,639.4,489.4z"/>
</g>
</svg>
