<?xml version="1.0" encoding="utf-8"?>
<!-- Generator: Adobe Illustrator 25.2.1, SVG Export Plug-In . SVG Version: 6.00 Build 0)  -->
<svg version="1.1" id="Camada_1" xmlns="http://www.w3.org/2000/svg" xmlns:xlink="http://www.w3.org/1999/xlink" x="0px" y="0px"
	 viewBox="0 0 1080 1080" style="enable-background:new 0 0 1080 1080;" xml:space="preserve">
<style type="text/css">
	.st0{display:none;}
	.st1{display:inline;fill:#FFFFFF;}
	.st2{display:inline;fill:none;stroke:#466BE3;stroke-width:28;stroke-miterlimit:10;}
	.st3{fill:#466BE3;}
</style>
<g class="st0">
	<circle class="st1" cx="540" cy="540" r="382.5"/>
	<circle class="st2" cx="540" cy="540" r="382.5"/>
</g>
<g>
	<path class="st3" d="M933.8,540.6c1.2-3.5,2.2-7.1,3.4-10.6c7.9,17.8,16,34.3,35.1,45.7c-0.8-9.9-1.3-17.8-2-25.5
		c-0.7,0.5-1.3,1-2,1.5c-4.2-2.9-9.6-4.7-12.1-8.6c-5.5-8.4-11.6-17.3-4-27.9c1.2-1.7,0-4.9,0-7.2c0-2.5,0-5,0-8.2
		c9.2,3.2,16.8,1.3,24-2.7c0.2-0.2,0.5-0.3,0.7-0.3c21.3,2,34.4-15.8,52.2-22.3c6.4-2.4,12.3-6.4,19.2-10.1
		c4.2,10.1,8.1,19.5,12.4,29.9c-14.4,8.6-28.9,17-43.2,25.5c-10.6,6.2-10.8,7.2-6.7,18.5c15.6,44.7,15,87.9-11.9,128.5
		c-0.5,0.7-0.5,1.5-0.7,2.4c0.8,0.5,1.3,1.2,2.2,1.5c30.9,13.9,40.3,42.5,24.5,75.9c-11.4,24.5-28.4,45.5-45.5,66.2
		c-2,2.5-4.2,5-6,7.2c9.7,4.5,19.3,7.7,27.7,12.9c22.3,13.8,21.7,37.3-0.7,50.9c-14.1,8.6-29.9,10.4-46,10.8
		c-32.8,0.8-65.5,2-98.3,1.8c-11.6,0-23.5-2-34.6-5.4c-28.4-8.4-35.8-31.6-16.3-54.1c11.1-12.9,25.7-23,38.6-34.3
		c1-0.8,2.2-1.5,2.7-2c-22.8,3.5-45.9,8.2-69,10.2c-27.2,2.4-54.8,2.7-82.1,3.5c-4.5,0.2-7.6,1.2-10.2,5.2
		c-15.6,23.5-48,27.9-70,10.2c-2.9-2.2-7.6-3.9-11.1-3.4c-56.8,9.2-113.7,18.8-170.5,28.2c-0.5,0.2-1,0.5-2,1
		c0,22.7-14.8,33.3-34.3,39.5c-27.2,8.6-55.1,8.7-83.2,7.7c-19.3-0.8-38.5-2.5-57.8-4.5c-9.4-1-19.8-2-24-12.3
		c-4-9.7,2.7-17.3,8.4-24c18.6-22.3,41.7-39.6,66.2-55.1c54.3-34.3,108.2-68.7,167.8-93.2c12.6-5.2,26-8.1,39.1-11.9
		c6.7-2,10.1,1,13.8,6.9c12.3,19,24.9,37.8,39,55.4c6.9,8.6,17.1,14.3,26.7,20.2c-25.4-25.7-47.7-53.8-65.3-84.8
		c-31.9-55.8-29.9-123,20.7-165.8c2-1.8,4.4-3.4,6.6-5.2c10.9,13.9,21,28.1,32.3,41c31.6,36.3,69.2,63.3,117.6,73.1
		c39.6,8.1,77.9,2,115.6-11.1c29.7-10.4,57.3-25.2,83.8-42c1.8-1.2,3.9-2.2,7.1-4.2c5.5,10.4,11.8,20.2,16,30.6
		c2.7,6.7,6.2,7.6,12.1,6.6c17.8-3.4,30.4-18.5,31.4-39.1c-13.6-3.9-21-15.3-29.1-25.9C939,551.6,936.4,546,933.8,540.6z
		 M647.4,711.1c-6.9-26.4-13.9-53.3-20.7-79.8C616.3,657.2,625.2,691.3,647.4,711.1z M990.4,668.8c-22-8.9-60-4.5-72.6,3.2
		C942.9,670.8,966.6,669.8,990.4,668.8z M1024,490.1c-2.4,4.9-4.2,9.2-7.1,15.5c4.2-0.5,7.9,0.2,9.2-1.3c2.5-2.9,3.9-7.1,5.7-10.9
		C1029.1,491.9,1027.1,491.3,1024,490.1z M892,780.7c-0.3-0.8-0.5-1.5-0.8-2.4c-9.9,4.5-20,9.2-29.9,13.8c0.3,0.7,0.5,1.2,0.8,1.8
		C872,789.6,881.9,785.1,892,780.7z"/>
	<path class="st3" d="M531.3,399c-20.5,2-40.5,4.7-60.5,6c-27.7,1.8-55.4-0.3-82.1-8.9c-14.8-4.7-28.6-11.4-39.5-23
		c-16.3-17.3-18.5-37.3-5.7-57.5c8.9-13.9,21.2-24,36.1-31.9c1.5,8.2,2.4,15.6,4,22.8c8.9,36.3,33.4,57.3,73.4,62
		c12.9,1.5,26,1.3,41,2c-2-2.5-2.4-3.2-3-3.5c-27.9-16.6-39.6-42.5-40.5-73.7c-0.5-18.5,0.8-37,0.5-55.4
		c-0.2-13.9-0.5-28.1-2.4-41.8c-2.5-18.5-11.4-33.6-28.1-43.3c0.2-0.7,0.5-1.3,0.7-2.2c22.3,4.2,45.2,6.6,66.7,13.1
		c22.3,6.9,30.4,27.5,23.7,54.6c-3.4,13.3-8.7,25.9-13.6,38.6c-9.4,25.4-9.2,49.7,9.2,70.9c8.1,9.2,18.6,16.5,28.6,25.2
		c38-123.8,173.9-180.4,284.2-139.3c98.9,37.3,158.2,143.5,136.6,247.6c-22.2,107-117.8,179.4-227.6,173
		C624.7,628.2,519.9,529.6,531.3,399z M567,394.5c1.8,10.1,3.2,19,5.2,27.5c8.1,35.1,18.8,69.2,43.5,96.9c17.3,19.5,37.5,31.9,65,25
		c10.1-2.5,20.3-3.9,30.4-6.4c22.8-5.5,46-8.9,69-3.7c20.5,4.7,40.1,13.1,60.5,19.2c25,7.6,32.9,7.1,50.6-11.1
		c5.2-5.4,9.6-11.8,13.4-18.1c19.5-32.4,30.1-68.5,40.3-104.5c1.7-5.7,2.9-11.8,4.4-18.3C820.9,438.3,694.1,448.6,567,394.5z"/>
	<path class="st3" d="M933.8,540.6c2.5,5.5,5.2,10.9,7.7,16.5c-1.3,1.8-2.4,4.5-4.2,5.7c-16.8,10.1-33.8,19.8-50.7,29.6
		c-0.3,0.2-1-0.2-3.7-0.8c16.1-12.4,31.1-24.2,46.9-36.5C928.5,550.6,923.4,543.5,933.8,540.6z"/>
	<path class="st3" d="M679,465.6c-2-1.8-3.7-4.2-6-5.2c-18.3-7.9-36.8-15.6-55.9-23.9c45.2-5.4,85.3,13.9,128.7,21.7
		c-11.3,11.8-24.9,12.3-39.6,11.4c1.5,3.4,3,5.9,4,8.6c4.5,11.9-1.5,25.7-13.4,30.6c-11.6,4.7-25-0.7-30.4-12.1
		c-5.4-11.4-1-25.4,10.1-30.9c0.8-0.5,2-0.2,3-0.3c-0.5,2.9-1.5,5.9-1.3,8.9c0.3,6.6,5.7,11.3,12.3,10.9c6.7-0.3,10.9-4,11.4-10.9
		c0.2-1.7-0.5-5-1.3-5.2C693.3,467.6,686.1,466.6,679,465.6z"/>
	<path class="st3" d="M824.6,463.7c15.6,12.4,18,21.7,9.4,36.3c-4.4,7.6-11.4,10.2-19.8,10.1c-8.1-0.2-14.4-3.4-18.5-10.8
		c-4.4-7.9-5.7-16.1-1.3-25.9c-14.1,0.3-26.4-2.5-35.3-14.4c42.5-7.9,82.5-26.7,127.2-22c-20.7,9.1-41.2,17.8-61.3,26.7
		c-7.4,3-14.6,6-24.5,9.9c3.9,4.5,6.6,9.6,10.8,11.8c3,1.5,9.2,0.2,12.1-2.2c4.7-3.9,6.2-9.7,3.2-16
		C825.7,466.2,825.1,465.1,824.6,463.7z"/>
</g>
</svg>
